<?xml version="1.0" encoding="iso-8859-1"?><!-- Generator: Adobe Illustrator 22.0.0, SVG Export Plug-In . SVG Version: 6.00 Build 0)  --><svg xmlns="http://www.w3.org/2000/svg" xmlns:xlink="http://www.w3.org/1999/xlink" viewBox="0 0 30 30" width="30px" height="30px"><g><path d="M16.912,12.876c0-0.797-0.575-1.275-1.573-1.275h-1.746v2.543h1.573C16.296,14.144,16.912,13.68,16.912,12.876z"/><path d="M15.409,15.558h-1.816v2.841h1.864c1.206,0,1.857-0.506,1.857-1.441C17.314,16.043,16.642,15.558,15.409,15.558z"/><path d="M15,3C8.373,3,3,8.373,3,15c0,6.627,5.373,12,12,12s12-5.373,12-12C27,8.373,21.627,3,15,3z M16,19.999V22h-2v-2h-2.5V10H14V8h2v2.008c1.86,0.043,2.971,0.977,2.971,2.487c0,1.06-0.783,1.982-1.809,2.134v0.125c1.324,0.097,2.287,1.095,2.287,2.384C19.449,18.888,18.129,19.996,16,19.999z"/></g></svg>