<?xml version="1.0" encoding="utf-8"?>
<!-- Generator: Adobe Illustrator 19.0.0, SVG Export Plug-In . SVG Version: 6.00 Build 0)  -->
<svg version="1.1" id="Layer_1" xmlns="http://www.w3.org/2000/svg" xmlns:xlink="http://www.w3.org/1999/xlink" x="0px" y="0px"
	 viewBox="0 0 2000 2000" style="enable-background:new 0 0 2000 2000;" xml:space="preserve">
<style type="text/css">
	.st0{fill:#BF7F11;}
	.st1{fill:#FFFFFF;}
	.st2{fill:url(#XMLID_3_);}
	.st3{fill:url(#XMLID_4_);}
	.st4{fill:url(#XMLID_5_);}
	.st5{fill:url(#XMLID_6_);}
	.st6{fill:url(#XMLID_7_);}
	.st7{fill:url(#XMLID_8_);}
</style>
<g id="XMLID_1_">
	<path id="XMLID_12631_" class="st0" d="M959.6,738l43.5-25.1c8.5-4.9,18.9-4.9,27.4,0l43.5,25.1c8.5,4.9,13.7,13.9,13.7,23.7v50.2
		c0,9.8-5.2,18.8-13.7,23.7l-43.5,25.1c-8.5,4.9-18.9,4.9-27.4,0l-43.5-25.1c-8.5-4.9-13.7-13.9-13.7-23.7v-50.2
		C945.9,752,951.1,742.9,959.6,738z"/>
	<g id="XMLID_12621_">
		<path id="XMLID_12628_" class="st1" d="M1056.7,759.6l-13-7.5c-0.1-0.1-0.2-0.1-0.3-0.2l-23-13.3c-2.2-1.3-5-1.3-7.2,0l-23,13.3
			c-0.1,0-0.2,0.1-0.3,0.2l-13,7.5c-2.2,1.3-3.6,3.7-3.6,6.2v0v41.9v0c0,2.6,1.4,4.9,3.6,6.2l13,7.5c0.1,0.1,0.2,0.1,0.3,0.2
			l23,13.3c2.2,1.3,5,1.3,7.2,0l23-13.3c0.1,0,0.2-0.1,0.3-0.2l13-7.5c2.2-1.3,3.6-3.7,3.6-6.2v0v-12.1v-5.5v-2.7
			c0-5.2-4.2-9.4-9.4-9.4h-36.5v7.8c0,5.5,4.4,9.9,9.9,9.9h16.1v2.4c0,1.5-0.8,2.8-2,3.5l-19.4,11.2c-1.3,0.7-2.8,0.7-4.1,0
			l-19.4-11.2c-1.3-0.7-2-2.1-2-3.5v-22.4c0-1.5,0.8-2.8,2-3.5l19.4-11.2c1.3-0.7,2.8-0.7,4.1,0l13.7,7.9c1,0.6,2.2,0.9,3.4,0.9
			h20.5c2.1,0,3.8-1.7,3.8-3.8l0,0v0C1060.3,763.3,1058.9,760.9,1056.7,759.6z"/>
		<linearGradient id="XMLID_3_" gradientUnits="userSpaceOnUse" x1="1042.3259" y1="788.0303" x2="992.857" y2="788.0303">
			<stop  offset="0" style="stop-color:#FFFFFF"/>
			<stop  offset="1" style="stop-color:#B3B2B5"/>
		</linearGradient>
		<path id="XMLID_12627_" class="st2" d="M1050.8,778h-36.5v7.8c0,5.5,4.4,9.9,9.9,9.9h16.1v2.4c0,0,0,0,0,0h20v-2.4v-5.5v-2.7
			C1060.3,782.2,1056,778,1050.8,778z"/>
		<linearGradient id="XMLID_4_" gradientUnits="userSpaceOnUse" x1="983.6606" y1="784.2166" x2="974.9478" y2="817.5305">
			<stop  offset="0" style="stop-color:#FFFFFF"/>
			<stop  offset="1" style="stop-color:#B3B2B5"/>
		</linearGradient>
		<path id="XMLID_12626_" class="st3" d="M993.2,798v-22.4c0-1.5,0.8-2.8,2-3.5l1.4-0.8L984.8,755l-8,4.6c-2.2,1.3-3.6,3.7-3.6,6.2
			v0v41.9v0c0,1.9,0.8,3.8,2.1,5.1l19.4-11.8C993.8,800.4,993.2,799.3,993.2,798z"/>
		<linearGradient id="XMLID_5_" gradientUnits="userSpaceOnUse" x1="1038.494" y1="824.7759" x2="1038.494" y2="799.0217">
			<stop  offset="0" style="stop-color:#FFFFFF"/>
			<stop  offset="1" style="stop-color:#B3B2B5"/>
		</linearGradient>
		<path id="XMLID_12625_" class="st4" d="M1060.3,807.8L1060.3,807.8v-12.2h-20v2.4c0,1.5-0.8,2.8-2,3.5l-19.4,11.2
			c-0.6,0.4-1.3,0.5-2,0.5V836c1.2,0,2.5-0.3,3.6-1l23-13.3c0.1,0,0.2-0.1,0.3-0.2l13-7.5C1058.9,812.8,1060.3,810.4,1060.3,807.8z"
			/>
		<linearGradient id="XMLID_6_" gradientUnits="userSpaceOnUse" x1="1006.4492" y1="753.2583" x2="978.7731" y2="772.4778">
			<stop  offset="0" style="stop-color:#FFFFFF"/>
			<stop  offset="1" style="stop-color:#B3B2B5"/>
		</linearGradient>
		<path id="XMLID_12624_" class="st5" d="M993.6,774.1L993.6,774.1c0.3-0.8,0.9-1.5,1.7-1.9l19.4-11.2c0.6-0.4,1.3-0.5,2-0.5v-22.6
			c-1.2,0-2.5,0.3-3.6,1l-23,13.3c-0.1,0-0.2,0.1-0.3,0.2l-13,7.5c-1.1,0.6-1.9,1.5-2.6,2.5L993.6,774.1z"/>
		<linearGradient id="XMLID_7_" gradientUnits="userSpaceOnUse" x1="994.855" y1="811.3818" x2="1018.6154" y2="849.9435">
			<stop  offset="0" style="stop-color:#FFFFFF"/>
			<stop  offset="1" style="stop-color:#B3B2B5"/>
		</linearGradient>
		<path id="XMLID_12623_" class="st6" d="M1014.7,812.8l-19.4-11.2c-0.6-0.4-1.1-0.9-1.5-1.5h0L974,811c0.6,1.3,1.6,2.4,2.9,3.1
			l13,7.5c0.1,0.1,0.2,0.1,0.3,0.2l23,13.3c1.1,0.6,2.4,1,3.6,1v-22.6C1016,813.3,1015.3,813.1,1014.7,812.8z"/>
		<linearGradient id="XMLID_8_" gradientUnits="userSpaceOnUse" x1="1044.7396" y1="764.8524" x2="1001.8362" y2="738.9108">
			<stop  offset="0" style="stop-color:#FFFFFF"/>
			<stop  offset="1" style="stop-color:#B3B2B5"/>
		</linearGradient>
		<path id="XMLID_12622_" class="st7" d="M1018.8,760.9l13.7,7.9c1,0.6,2.2,0.9,3.4,0.9h20.5c2.1,0,3.8-1.7,3.8-3.8l0,0v0
			c0-2.6-1.4-4.9-3.6-6.2l-13-7.5c-0.1-0.1-0.2-0.1-0.3-0.2l-23-13.3c-1.1-0.6-2.4-1-3.6-1v22.6
			C1017.4,760.4,1018.1,760.5,1018.8,760.9z"/>
	</g>
</g>
</svg>
